<?xml version="1.0" encoding="utf-8"?>
<!-- Generator: Adobe Illustrator 15.1.0, SVG Export Plug-In  -->
<!DOCTYPE svg PUBLIC "-//W3C//DTD SVG 1.1//EN" "http://www.w3.org/Graphics/SVG/1.1/DTD/svg11.dtd" [
	<!ENTITY ns_flows "http://ns.adobe.com/Flows/1.0/">
]>
<svg version="1.1"
	 xmlns="http://www.w3.org/2000/svg" xmlns:xlink="http://www.w3.org/1999/xlink" xmlns:a="http://ns.adobe.com/AdobeSVGViewerExtensions/3.0/"
	 x="0px" y="0px" width="320px" height="52px" viewBox="-0.484 -0.896 320 52"
	 style="overflow:visible;enable-background:new -0.484 -0.896 320 52;" xml:space="preserve">
<defs>
</defs>
<path style="fill:#F8F0E2;" d="M243.319,0.01c-13.019,0-24.019,11.133-24.019,24.316c0,14.992,10.192,25.867,24.216,25.867
	c13.234,0,23.997-11.602,23.997-25.867C267.514,10.924,256.657,0.01,243.319,0.01 M243.517,44.078
	c-11.197,0-15.258-11.678-15.258-19.514c0-7.127,4.095-18.418,15.061-18.418c10.522,0,15.254,10.63,15.254,18.18
	C258.573,34.145,253.402,44.078,243.517,44.078 M15.305,0.014c8.5,0,17.589,3.777,17.589,14.365c0,10.227-9.982,16.35-20.371,16.366
	c-0.028-1.696-0.063-3.447-0.079-5.209c7.854-0.602,12.071-4.416,12.071-10.711c0-5.419-4.389-9.204-10.682-9.204H8.756
	c-0.01,15.762,0.309,38.426,0.938,44.053c-3.375-0.682-6.16-0.698-9.643,0C0.85,42.811,1.369,6.48,0,0c0,0,6.385,0.221,7.793,0.221
	C9.459,0.025,13.584,0.014,15.305,0.014 M96.731,0.373c-2.466,9.645-12.755,37.479-17.714,49.307
	c3.242-0.455,6.672-0.348,8.253-0.09c1.655-5.307,3.435-11.614,4.226-13.984c5.139-0.374,11.217-0.374,17.328,0
	c1.854,4.957,2.938,8.473,4.621,13.963c3.162-0.297,6.396-0.262,9.824,0.043c-4.916-11.814-16.346-42.268-18.176-49.245
	C102.609,0.667,99.438,0.667,96.731,0.373 M93.466,28.975c0,0,4.719-14.025,6.308-18.858c0,0,4.898,13.866,6.626,18.858
	C101.158,29.512,98.512,29.512,93.466,28.975 M52.414,43.412c5.187,0.227,17.564-0.508,17.564-0.508
	c0.04,5.325-0.311,6.91-0.311,6.91c-4.621-0.617-18.525-0.914-26.053,0c1.107-12.018,0.734-36.809,0.051-49.66
	c6.951,0.586,20.26,0.471,25.889,0V7.1c-4.821-0.459-12.508-0.92-16.892-0.777c0,0-0.176,11.502-0.043,14.438
	c7.838,0.559,13.587-0.365,16.062-0.547v6.928c0,0-9.092-0.895-16.036-0.358C52.414,31.411,52.414,38.271,52.414,43.412
	 M318.732,48.598c0.032,0.127,0.195,1.014,0.188,1.022c-2.154-0.331-5.412-0.386-7.467-0.059
	c-3.91-5.764-19.361-26.895-25.471-34.778c-0.217,11.532-0.356,28.984,0.353,34.731c-0.921,0.032-2.296-0.052-2.995-0.052
	c-2.084,0-3.004-0.101-4.869,0.157c1.02-5.967,1.256-42.71,0-49.181c2.965,0.059,5.404,0.1,6.188,0.043
	c0.7-0.043,1.173-0.109,1.173-0.109s16.616,22.284,25.285,33.922c0.097-4.396,0.492-26.526-0.344-34.031
	c1.17,0.167,2.613,0.582,4.056,0.562c1.317-0.029,2.744-0.344,4.047-0.575C317.701,9.627,317.271,41.58,318.732,48.598
	 M164.704,13.301c0,7.953-5.376,12.537-10.55,13.561c3.764,4.825,17.35,22.836,17.35,22.836c-3.431-0.514-8.464-0.426-10.982-0.133
	c-4.33-6.768-11.654-17.246-14.454-20.628c-0.05-1.939-0.069-3.434-0.105-5.345c8.421,0.176,10.202-5.424,10.202-9.398
	c0-5.285-4.805-8.047-9.547-8.047h-4.123c-0.361,9.442,0.316,32.65,0.736,43.443c-3.284-0.335-6.918-0.283-9.538,0
	c1.116-7.91,0.92-43.922,0-49.422c0,0,5.199,0.4,7.457,0.271c2.03-0.115,3.931-0.215,6.336-0.215
	C152.659,0.225,164.704,1.497,164.704,13.301 M199.681,21.519c5.417,3.452,9.557,6.675,9.557,14.03
	c0,10.625-8.318,14.394-15.44,14.394c-5.864,0-12.082-3.099-14.961-5.322c1.074-2.128,2.205-4.323,3.031-7.344
	c3.204,3.578,8.12,6.104,11.498,6.104c4.462,0,7.136-2.435,7.136-6.513c0.177-3.06-2.021-5.226-4.773-7.529
	c-2.008-1.67-7.095-4.957-8.308-5.941c-4.013-3.274-6.473-6.003-6.473-11.212c0-6.942,6.162-12.176,14.354-12.176
	c4.19,0,8.109,1.25,12.905,4.45c-1.184,1.78-2.819,4.517-3.676,7.042c-1.925-2.611-4.884-5.355-8.982-5.355
	c-3.874,0-6.283,2.246-6.283,5.852c0,1.18,0.853,2.521,2.613,4.096C193.614,17.602,196.029,19.285,199.681,21.519"/>
</svg>
